# xmcd CD database file
#
# Track frame offsets:
#	150
#	58725
#	95437
#	156075
#
# Disc length: 2628 seconds
#
# Revision: 0
# Processed by: cddbd v1.5.1PL0 Copyright (c) Steve Scherf et al.
# Submitted via: CDex 1.51
#
DISCID=2b0a4204
DTITLE=Chick Corea - Summer Jum 1979
DYEAR=1979
DGENRE=Jazz
TTITLE0=Senor Mouse
TTITLE1=Para Oriente
TTITLE2=Spain
TTITLE3=Spain(live at Roxy)
EXTD=YEAR: 1979
EXTT0=
EXTT1=
EXTT2=
EXTT3=
PLAYORDER=
